<?xml version="1.0" encoding="UTF-8" standalone="no"?>
<!DOCTYPE svg PUBLIC "-//W3C//DTD SVG 1.1//EN"
 "http://www.w3.org/Graphics/SVG/1.1/DTD/svg11.dtd">
<!-- Generated by graphviz version 2.47.0 (20210316.0004)
 -->
<!-- Pages: 1 -->
<svg width="762pt" height="1256pt"
 viewBox="0.00 0.00 761.83 1256.13" xmlns="http://www.w3.org/2000/svg" xmlns:xlink="http://www.w3.org/1999/xlink">
<g id="graph0" class="graph" transform="scale(1 1) rotate(0) translate(4 1252.13)">
<polygon fill="white" stroke="transparent" points="-4,4 -4,-1252.13 757.83,-1252.13 757.83,4 -4,4"/>
<!-- 2 -->
<g id="node1" class="node">
<title>2</title>
<ellipse fill="none" stroke="black" cx="170.41" cy="-924.14" rx="73.39" ry="18"/>
<text text-anchor="middle" x="170.41" y="-920.44" font-family="Times New Roman,serif" font-size="14.00">Geode &quot;Ground&quot;</text>
</g>
<!-- 4 -->
<g id="node2" class="node">
<title>4</title>
<ellipse fill="none" stroke="black" cx="170.41" cy="-1077.13" rx="170.33" ry="98.99"/>
<polygon fill="none" stroke="black" points="61.41,-1107.13 61.41,-1140.13 116.41,-1140.13 116.41,-1107.13 61.41,-1107.13"/>
<text text-anchor="start" x="64.91" y="-1119.93" font-family="Times New Roman,serif" font-size="14.00">Ambient</text>
<polygon fill="none" stroke="black" points="118.41,-1107.13 118.41,-1140.13 280.41,-1140.13 280.41,-1107.13 118.41,-1107.13"/>
<polygon fill="#4c4cff" stroke="transparent" points="124.41,-1113.13 124.41,-1134.13 170.41,-1134.13 170.41,-1113.13 124.41,-1113.13"/>
<polygon fill="none" stroke="black" points="124.41,-1113.13 124.41,-1134.13 170.41,-1134.13 170.41,-1113.13 124.41,-1113.13"/>
<text text-anchor="start" x="127.41" y="-1119.93" font-family="Times New Roman,serif" font-size="14.00">RGBA</text>
<polygon fill="none" stroke="black" points="172.41,-1113.13 172.41,-1134.13 196.41,-1134.13 196.41,-1113.13 172.41,-1113.13"/>
<text text-anchor="start" x="175.41" y="-1119.93" font-family="Times New Roman,serif" font-size="14.00">0.3</text>
<polygon fill="none" stroke="black" points="198.41,-1113.13 198.41,-1134.13 222.41,-1134.13 222.41,-1113.13 198.41,-1113.13"/>
<text text-anchor="start" x="201.41" y="-1119.93" font-family="Times New Roman,serif" font-size="14.00">0.3</text>
<polygon fill="none" stroke="black" points="224.41,-1113.13 224.41,-1134.13 248.41,-1134.13 248.41,-1113.13 224.41,-1113.13"/>
<text text-anchor="start" x="227.41" y="-1119.93" font-family="Times New Roman,serif" font-size="14.00">1.0</text>
<polygon fill="none" stroke="black" points="250.41,-1113.13 250.41,-1134.13 274.41,-1134.13 274.41,-1113.13 250.41,-1113.13"/>
<text text-anchor="start" x="253.41" y="-1119.93" font-family="Times New Roman,serif" font-size="14.00">1.0</text>
<polygon fill="none" stroke="black" points="121.41,-1110.13 121.41,-1137.13 277.41,-1137.13 277.41,-1110.13 121.41,-1110.13"/>
<polygon fill="none" stroke="black" points="61.41,-1072.13 61.41,-1105.13 116.41,-1105.13 116.41,-1072.13 61.41,-1072.13"/>
<text text-anchor="start" x="68.41" y="-1084.93" font-family="Times New Roman,serif" font-size="14.00">Diffuse</text>
<polygon fill="none" stroke="black" points="118.41,-1072.13 118.41,-1105.13 280.41,-1105.13 280.41,-1072.13 118.41,-1072.13"/>
<polygon fill="#4c4cff" stroke="transparent" points="124.41,-1078.13 124.41,-1099.13 170.41,-1099.13 170.41,-1078.13 124.41,-1078.13"/>
<polygon fill="none" stroke="black" points="124.41,-1078.13 124.41,-1099.13 170.41,-1099.13 170.41,-1078.13 124.41,-1078.13"/>
<text text-anchor="start" x="127.41" y="-1084.93" font-family="Times New Roman,serif" font-size="14.00">RGBA</text>
<polygon fill="none" stroke="black" points="172.41,-1078.13 172.41,-1099.13 196.41,-1099.13 196.41,-1078.13 172.41,-1078.13"/>
<text text-anchor="start" x="175.41" y="-1084.93" font-family="Times New Roman,serif" font-size="14.00">0.3</text>
<polygon fill="none" stroke="black" points="198.41,-1078.13 198.41,-1099.13 222.41,-1099.13 222.41,-1078.13 198.41,-1078.13"/>
<text text-anchor="start" x="201.41" y="-1084.93" font-family="Times New Roman,serif" font-size="14.00">0.3</text>
<polygon fill="none" stroke="black" points="224.41,-1078.13 224.41,-1099.13 248.41,-1099.13 248.41,-1078.13 224.41,-1078.13"/>
<text text-anchor="start" x="227.41" y="-1084.93" font-family="Times New Roman,serif" font-size="14.00">1.0</text>
<polygon fill="none" stroke="black" points="250.41,-1078.13 250.41,-1099.13 274.41,-1099.13 274.41,-1078.13 250.41,-1078.13"/>
<text text-anchor="start" x="253.41" y="-1084.93" font-family="Times New Roman,serif" font-size="14.00">1.0</text>
<polygon fill="none" stroke="black" points="121.41,-1075.13 121.41,-1102.13 277.41,-1102.13 277.41,-1075.13 121.41,-1075.13"/>
<polygon fill="none" stroke="black" points="61.41,-1037.13 61.41,-1070.13 116.41,-1070.13 116.41,-1037.13 61.41,-1037.13"/>
<text text-anchor="start" x="64.41" y="-1049.93" font-family="Times New Roman,serif" font-size="14.00">Specular</text>
<polygon fill="none" stroke="black" points="118.41,-1037.13 118.41,-1070.13 280.41,-1070.13 280.41,-1037.13 118.41,-1037.13"/>
<polygon fill="#666666" stroke="transparent" points="124.41,-1043.13 124.41,-1064.13 170.41,-1064.13 170.41,-1043.13 124.41,-1043.13"/>
<polygon fill="none" stroke="black" points="124.41,-1043.13 124.41,-1064.13 170.41,-1064.13 170.41,-1043.13 124.41,-1043.13"/>
<text text-anchor="start" x="127.41" y="-1049.93" font-family="Times New Roman,serif" font-size="14.00">RGBA</text>
<polygon fill="none" stroke="black" points="172.41,-1043.13 172.41,-1064.13 196.41,-1064.13 196.41,-1043.13 172.41,-1043.13"/>
<text text-anchor="start" x="175.41" y="-1049.93" font-family="Times New Roman,serif" font-size="14.00">0.4</text>
<polygon fill="none" stroke="black" points="198.41,-1043.13 198.41,-1064.13 222.41,-1064.13 222.41,-1043.13 198.41,-1043.13"/>
<text text-anchor="start" x="201.41" y="-1049.93" font-family="Times New Roman,serif" font-size="14.00">0.4</text>
<polygon fill="none" stroke="black" points="224.41,-1043.13 224.41,-1064.13 248.41,-1064.13 248.41,-1043.13 224.41,-1043.13"/>
<text text-anchor="start" x="227.41" y="-1049.93" font-family="Times New Roman,serif" font-size="14.00">0.4</text>
<polygon fill="none" stroke="black" points="250.41,-1043.13 250.41,-1064.13 274.41,-1064.13 274.41,-1043.13 250.41,-1043.13"/>
<text text-anchor="start" x="253.41" y="-1049.93" font-family="Times New Roman,serif" font-size="14.00">1.0</text>
<polygon fill="none" stroke="black" points="121.41,-1040.13 121.41,-1067.13 277.41,-1067.13 277.41,-1040.13 121.41,-1040.13"/>
<polygon fill="none" stroke="black" points="61.41,-1014.13 61.41,-1035.13 116.41,-1035.13 116.41,-1014.13 61.41,-1014.13"/>
<text text-anchor="start" x="73.41" y="-1020.93" font-family="Times New Roman,serif" font-size="14.00">Shine</text>
<polygon fill="none" stroke="black" points="118.41,-1014.13 118.41,-1035.13 280.41,-1035.13 280.41,-1014.13 118.41,-1014.13"/>
<text text-anchor="start" x="190.41" y="-1020.93" font-family="Times New Roman,serif" font-size="14.00">5.0</text>
<polygon fill="none" stroke="black" points="57.91,-1011.13 57.91,-1143.13 282.91,-1143.13 282.91,-1011.13 57.91,-1011.13"/>
</g>
<!-- 4&#45;&gt;2 -->
<g id="edge1" class="edge">
<title>4&#45;&gt;2</title>
<path fill="none" stroke="black" d="M170.41,-977.95C170.41,-968.86 170.41,-960.26 170.41,-952.74"/>
<polygon fill="black" stroke="black" points="173.91,-952.57 170.41,-942.57 166.91,-952.57 173.91,-952.57"/>
</g>
<!-- 6 -->
<g id="node3" class="node">
<title>6</title>
<ellipse fill="none" stroke="black" cx="357.41" cy="-924.14" rx="59.59" ry="18"/>
<text text-anchor="middle" x="357.41" y="-920.44" font-family="Times New Roman,serif" font-size="14.00">Geode &quot;Bed&quot;</text>
</g>
<!-- 8 -->
<g id="node4" class="node">
<title>8</title>
<ellipse fill="none" stroke="black" cx="182.41" cy="-379.53" rx="68.49" ry="18"/>
<text text-anchor="middle" x="182.41" y="-375.83" font-family="Times New Roman,serif" font-size="14.00">Geode &quot;XAxis&quot;</text>
</g>
<!-- 10 -->
<g id="node5" class="node">
<title>10</title>
<ellipse fill="none" stroke="black" cx="374.41" cy="-18" rx="67.69" ry="18"/>
<text text-anchor="middle" x="374.41" y="-14.3" font-family="Times New Roman,serif" font-size="14.00">Geode &quot;ZAxis&quot;</text>
</g>
<!-- 12 -->
<g id="node6" class="node">
<title>12</title>
<ellipse fill="none" stroke="black" cx="374.41" cy="-170.99" rx="170.33" ry="98.99"/>
<polygon fill="none" stroke="black" points="265.41,-200.99 265.41,-233.99 320.41,-233.99 320.41,-200.99 265.41,-200.99"/>
<text text-anchor="start" x="268.91" y="-213.79" font-family="Times New Roman,serif" font-size="14.00">Ambient</text>
<polygon fill="none" stroke="black" points="322.41,-200.99 322.41,-233.99 484.41,-233.99 484.41,-200.99 322.41,-200.99"/>
<polygon fill="#ffff00" stroke="transparent" points="328.41,-206.99 328.41,-227.99 374.41,-227.99 374.41,-206.99 328.41,-206.99"/>
<polygon fill="none" stroke="black" points="328.41,-206.99 328.41,-227.99 374.41,-227.99 374.41,-206.99 328.41,-206.99"/>
<text text-anchor="start" x="331.41" y="-213.79" font-family="Times New Roman,serif" font-size="14.00">RGBA</text>
<polygon fill="none" stroke="black" points="376.41,-206.99 376.41,-227.99 400.41,-227.99 400.41,-206.99 376.41,-206.99"/>
<text text-anchor="start" x="379.41" y="-213.79" font-family="Times New Roman,serif" font-size="14.00">1.0</text>
<polygon fill="none" stroke="black" points="402.41,-206.99 402.41,-227.99 426.41,-227.99 426.41,-206.99 402.41,-206.99"/>
<text text-anchor="start" x="405.41" y="-213.79" font-family="Times New Roman,serif" font-size="14.00">1.0</text>
<polygon fill="none" stroke="black" points="428.41,-206.99 428.41,-227.99 452.41,-227.99 452.41,-206.99 428.41,-206.99"/>
<text text-anchor="start" x="431.41" y="-213.79" font-family="Times New Roman,serif" font-size="14.00">0.0</text>
<polygon fill="none" stroke="black" points="454.41,-206.99 454.41,-227.99 478.41,-227.99 478.41,-206.99 454.41,-206.99"/>
<text text-anchor="start" x="457.41" y="-213.79" font-family="Times New Roman,serif" font-size="14.00">1.0</text>
<polygon fill="none" stroke="black" points="325.41,-203.99 325.41,-230.99 481.41,-230.99 481.41,-203.99 325.41,-203.99"/>
<polygon fill="none" stroke="black" points="265.41,-165.99 265.41,-198.99 320.41,-198.99 320.41,-165.99 265.41,-165.99"/>
<text text-anchor="start" x="272.41" y="-178.79" font-family="Times New Roman,serif" font-size="14.00">Diffuse</text>
<polygon fill="none" stroke="black" points="322.41,-165.99 322.41,-198.99 484.41,-198.99 484.41,-165.99 322.41,-165.99"/>
<polygon fill="#ffff00" stroke="transparent" points="328.41,-171.99 328.41,-192.99 374.41,-192.99 374.41,-171.99 328.41,-171.99"/>
<polygon fill="none" stroke="black" points="328.41,-171.99 328.41,-192.99 374.41,-192.99 374.41,-171.99 328.41,-171.99"/>
<text text-anchor="start" x="331.41" y="-178.79" font-family="Times New Roman,serif" font-size="14.00">RGBA</text>
<polygon fill="none" stroke="black" points="376.41,-171.99 376.41,-192.99 400.41,-192.99 400.41,-171.99 376.41,-171.99"/>
<text text-anchor="start" x="379.41" y="-178.79" font-family="Times New Roman,serif" font-size="14.00">1.0</text>
<polygon fill="none" stroke="black" points="402.41,-171.99 402.41,-192.99 426.41,-192.99 426.41,-171.99 402.41,-171.99"/>
<text text-anchor="start" x="405.41" y="-178.79" font-family="Times New Roman,serif" font-size="14.00">1.0</text>
<polygon fill="none" stroke="black" points="428.41,-171.99 428.41,-192.99 452.41,-192.99 452.41,-171.99 428.41,-171.99"/>
<text text-anchor="start" x="431.41" y="-178.79" font-family="Times New Roman,serif" font-size="14.00">0.0</text>
<polygon fill="none" stroke="black" points="454.41,-171.99 454.41,-192.99 478.41,-192.99 478.41,-171.99 454.41,-171.99"/>
<text text-anchor="start" x="457.41" y="-178.79" font-family="Times New Roman,serif" font-size="14.00">1.0</text>
<polygon fill="none" stroke="black" points="325.41,-168.99 325.41,-195.99 481.41,-195.99 481.41,-168.99 325.41,-168.99"/>
<polygon fill="none" stroke="black" points="265.41,-130.99 265.41,-163.99 320.41,-163.99 320.41,-130.99 265.41,-130.99"/>
<text text-anchor="start" x="268.41" y="-143.79" font-family="Times New Roman,serif" font-size="14.00">Specular</text>
<polygon fill="none" stroke="black" points="322.41,-130.99 322.41,-163.99 484.41,-163.99 484.41,-130.99 322.41,-130.99"/>
<polygon fill="#666666" stroke="transparent" points="328.41,-136.99 328.41,-157.99 374.41,-157.99 374.41,-136.99 328.41,-136.99"/>
<polygon fill="none" stroke="black" points="328.41,-136.99 328.41,-157.99 374.41,-157.99 374.41,-136.99 328.41,-136.99"/>
<text text-anchor="start" x="331.41" y="-143.79" font-family="Times New Roman,serif" font-size="14.00">RGBA</text>
<polygon fill="none" stroke="black" points="376.41,-136.99 376.41,-157.99 400.41,-157.99 400.41,-136.99 376.41,-136.99"/>
<text text-anchor="start" x="379.41" y="-143.79" font-family="Times New Roman,serif" font-size="14.00">0.4</text>
<polygon fill="none" stroke="black" points="402.41,-136.99 402.41,-157.99 426.41,-157.99 426.41,-136.99 402.41,-136.99"/>
<text text-anchor="start" x="405.41" y="-143.79" font-family="Times New Roman,serif" font-size="14.00">0.4</text>
<polygon fill="none" stroke="black" points="428.41,-136.99 428.41,-157.99 452.41,-157.99 452.41,-136.99 428.41,-136.99"/>
<text text-anchor="start" x="431.41" y="-143.79" font-family="Times New Roman,serif" font-size="14.00">0.4</text>
<polygon fill="none" stroke="black" points="454.41,-136.99 454.41,-157.99 478.41,-157.99 478.41,-136.99 454.41,-136.99"/>
<text text-anchor="start" x="457.41" y="-143.79" font-family="Times New Roman,serif" font-size="14.00">1.0</text>
<polygon fill="none" stroke="black" points="325.41,-133.99 325.41,-160.99 481.41,-160.99 481.41,-133.99 325.41,-133.99"/>
<polygon fill="none" stroke="black" points="265.41,-107.99 265.41,-128.99 320.41,-128.99 320.41,-107.99 265.41,-107.99"/>
<text text-anchor="start" x="277.41" y="-114.79" font-family="Times New Roman,serif" font-size="14.00">Shine</text>
<polygon fill="none" stroke="black" points="322.41,-107.99 322.41,-128.99 484.41,-128.99 484.41,-107.99 322.41,-107.99"/>
<text text-anchor="start" x="394.41" y="-114.79" font-family="Times New Roman,serif" font-size="14.00">5.0</text>
<polygon fill="none" stroke="black" points="261.91,-104.99 261.91,-236.99 486.91,-236.99 486.91,-104.99 261.91,-104.99"/>
</g>
<!-- 12&#45;&gt;10 -->
<g id="edge2" class="edge">
<title>12&#45;&gt;10</title>
<path fill="none" stroke="black" d="M374.41,-71.81C374.41,-62.73 374.41,-54.13 374.41,-46.61"/>
<polygon fill="black" stroke="black" points="377.91,-46.43 374.41,-36.43 370.91,-46.43 377.91,-46.43"/>
</g>
<!-- 14 -->
<g id="node7" class="node">
<title>14</title>
<ellipse fill="none" stroke="black" cx="374.41" cy="-379.53" rx="105.22" ry="73.58"/>
<polygon fill="none" stroke="black" points="311.41,-403.53 311.41,-424.53 335.41,-424.53 335.41,-403.53 311.41,-403.53"/>
<text text-anchor="start" x="314.41" y="-410.33" font-family="Times New Roman,serif" font-size="14.00">1.0</text>
<polygon fill="none" stroke="black" points="337.41,-403.53 337.41,-424.53 361.41,-424.53 361.41,-403.53 337.41,-403.53"/>
<text text-anchor="start" x="340.41" y="-410.33" font-family="Times New Roman,serif" font-size="14.00">0.0</text>
<polygon fill="none" stroke="black" points="363.41,-403.53 363.41,-424.53 387.41,-424.53 387.41,-403.53 363.41,-403.53"/>
<text text-anchor="start" x="366.41" y="-410.33" font-family="Times New Roman,serif" font-size="14.00">0.0</text>
<polygon fill="none" stroke="black" points="389.41,-403.53 389.41,-424.53 438.41,-424.53 438.41,-403.53 389.41,-403.53"/>
<text text-anchor="start" x="404.91" y="-410.33" font-family="Times New Roman,serif" font-size="14.00">0.0</text>
<polygon fill="none" stroke="black" points="311.41,-380.53 311.41,-401.53 335.41,-401.53 335.41,-380.53 311.41,-380.53"/>
<text text-anchor="start" x="314.41" y="-387.33" font-family="Times New Roman,serif" font-size="14.00">0.0</text>
<polygon fill="none" stroke="black" points="337.41,-380.53 337.41,-401.53 361.41,-401.53 361.41,-380.53 337.41,-380.53"/>
<text text-anchor="start" x="340.41" y="-387.33" font-family="Times New Roman,serif" font-size="14.00">1.0</text>
<polygon fill="none" stroke="black" points="363.41,-380.53 363.41,-401.53 387.41,-401.53 387.41,-380.53 363.41,-380.53"/>
<text text-anchor="start" x="366.41" y="-387.33" font-family="Times New Roman,serif" font-size="14.00">0.0</text>
<polygon fill="none" stroke="black" points="389.41,-380.53 389.41,-401.53 438.41,-401.53 438.41,-380.53 389.41,-380.53"/>
<text text-anchor="start" x="392.41" y="-387.33" font-family="Times New Roman,serif" font-size="14.00">&#45;8000.0</text>
<polygon fill="none" stroke="black" points="311.41,-357.53 311.41,-378.53 335.41,-378.53 335.41,-357.53 311.41,-357.53"/>
<text text-anchor="start" x="314.41" y="-364.33" font-family="Times New Roman,serif" font-size="14.00">0.0</text>
<polygon fill="none" stroke="black" points="337.41,-357.53 337.41,-378.53 361.41,-378.53 361.41,-357.53 337.41,-357.53"/>
<text text-anchor="start" x="340.41" y="-364.33" font-family="Times New Roman,serif" font-size="14.00">0.0</text>
<polygon fill="none" stroke="black" points="363.41,-357.53 363.41,-378.53 387.41,-378.53 387.41,-357.53 363.41,-357.53"/>
<text text-anchor="start" x="366.41" y="-364.33" font-family="Times New Roman,serif" font-size="14.00">1.0</text>
<polygon fill="none" stroke="black" points="389.41,-357.53 389.41,-378.53 438.41,-378.53 438.41,-357.53 389.41,-357.53"/>
<text text-anchor="start" x="404.91" y="-364.33" font-family="Times New Roman,serif" font-size="14.00">0.0</text>
<polygon fill="none" stroke="black" points="311.41,-334.53 311.41,-355.53 335.41,-355.53 335.41,-334.53 311.41,-334.53"/>
<text text-anchor="start" x="314.41" y="-341.33" font-family="Times New Roman,serif" font-size="14.00">0.0</text>
<polygon fill="none" stroke="black" points="337.41,-334.53 337.41,-355.53 361.41,-355.53 361.41,-334.53 337.41,-334.53"/>
<text text-anchor="start" x="340.41" y="-341.33" font-family="Times New Roman,serif" font-size="14.00">0.0</text>
<polygon fill="none" stroke="black" points="363.41,-334.53 363.41,-355.53 387.41,-355.53 387.41,-334.53 363.41,-334.53"/>
<text text-anchor="start" x="366.41" y="-341.33" font-family="Times New Roman,serif" font-size="14.00">0.0</text>
<polygon fill="none" stroke="black" points="389.41,-334.53 389.41,-355.53 438.41,-355.53 438.41,-334.53 389.41,-334.53"/>
<text text-anchor="start" x="404.91" y="-341.33" font-family="Times New Roman,serif" font-size="14.00">1.0</text>
<polygon fill="none" stroke="black" points="307.91,-331.53 307.91,-427.53 440.91,-427.53 440.91,-331.53 307.91,-331.53"/>
</g>
<!-- 14&#45;&gt;12 -->
<g id="edge3" class="edge">
<title>14&#45;&gt;12</title>
<path fill="none" stroke="black" d="M374.41,-305.71C374.41,-297.45 374.41,-288.9 374.41,-280.3"/>
<polygon fill="black" stroke="black" points="377.91,-280.2 374.41,-270.2 370.91,-280.2 377.91,-280.2"/>
</g>
<!-- 16 -->
<g id="node8" class="node">
<title>16</title>
<ellipse fill="none" stroke="black" cx="356.41" cy="-588.06" rx="34.39" ry="18"/>
<text text-anchor="middle" x="356.41" y="-584.36" font-family="Times New Roman,serif" font-size="14.00">Group</text>
</g>
<!-- 16&#45;&gt;8 -->
<g id="edge4" class="edge">
<title>16&#45;&gt;8</title>
<path fill="none" stroke="black" d="M343.05,-571.2C312.84,-535.35 239.15,-447.87 203.04,-405.01"/>
<polygon fill="black" stroke="black" points="205.67,-402.7 196.55,-397.31 200.31,-407.21 205.67,-402.7"/>
</g>
<!-- 16&#45;&gt;14 -->
<g id="edge5" class="edge">
<title>16&#45;&gt;14</title>
<path fill="none" stroke="black" d="M357.92,-569.81C359.96,-546.35 363.76,-502.8 367.19,-463.38"/>
<polygon fill="black" stroke="black" points="370.7,-463.46 368.08,-453.2 363.72,-462.85 370.7,-463.46"/>
</g>
<!-- 18 -->
<g id="node9" class="node">
<title>18</title>
<ellipse fill="none" stroke="black" cx="356.41" cy="-796.6" rx="106.55" ry="73.58"/>
<polygon fill="none" stroke="black" points="292.41,-820.6 292.41,-841.6 316.41,-841.6 316.41,-820.6 292.41,-820.6"/>
<text text-anchor="start" x="295.41" y="-827.4" font-family="Times New Roman,serif" font-size="14.00">1.0</text>
<polygon fill="none" stroke="black" points="318.41,-820.6 318.41,-841.6 342.41,-841.6 342.41,-820.6 318.41,-820.6"/>
<text text-anchor="start" x="321.41" y="-827.4" font-family="Times New Roman,serif" font-size="14.00">0.0</text>
<polygon fill="none" stroke="black" points="344.41,-820.6 344.41,-841.6 368.41,-841.6 368.41,-820.6 344.41,-820.6"/>
<text text-anchor="start" x="347.41" y="-827.4" font-family="Times New Roman,serif" font-size="14.00">0.0</text>
<polygon fill="none" stroke="black" points="370.41,-820.6 370.41,-841.6 421.41,-841.6 421.41,-820.6 370.41,-820.6"/>
<text text-anchor="start" x="386.91" y="-827.4" font-family="Times New Roman,serif" font-size="14.00">0.0</text>
<polygon fill="none" stroke="black" points="292.41,-797.6 292.41,-818.6 316.41,-818.6 316.41,-797.6 292.41,-797.6"/>
<text text-anchor="start" x="295.41" y="-804.4" font-family="Times New Roman,serif" font-size="14.00">0.0</text>
<polygon fill="none" stroke="black" points="318.41,-797.6 318.41,-818.6 342.41,-818.6 342.41,-797.6 318.41,-797.6"/>
<text text-anchor="start" x="321.41" y="-804.4" font-family="Times New Roman,serif" font-size="14.00">1.0</text>
<polygon fill="none" stroke="black" points="344.41,-797.6 344.41,-818.6 368.41,-818.6 368.41,-797.6 344.41,-797.6"/>
<text text-anchor="start" x="347.41" y="-804.4" font-family="Times New Roman,serif" font-size="14.00">0.0</text>
<polygon fill="none" stroke="black" points="370.41,-797.6 370.41,-818.6 421.41,-818.6 421.41,-797.6 370.41,-797.6"/>
<text text-anchor="start" x="376.91" y="-804.4" font-family="Times New Roman,serif" font-size="14.00">4000.0</text>
<polygon fill="none" stroke="black" points="292.41,-774.6 292.41,-795.6 316.41,-795.6 316.41,-774.6 292.41,-774.6"/>
<text text-anchor="start" x="295.41" y="-781.4" font-family="Times New Roman,serif" font-size="14.00">0.0</text>
<polygon fill="none" stroke="black" points="318.41,-774.6 318.41,-795.6 342.41,-795.6 342.41,-774.6 318.41,-774.6"/>
<text text-anchor="start" x="321.41" y="-781.4" font-family="Times New Roman,serif" font-size="14.00">0.0</text>
<polygon fill="none" stroke="black" points="344.41,-774.6 344.41,-795.6 368.41,-795.6 368.41,-774.6 344.41,-774.6"/>
<text text-anchor="start" x="347.41" y="-781.4" font-family="Times New Roman,serif" font-size="14.00">1.0</text>
<polygon fill="none" stroke="black" points="370.41,-774.6 370.41,-795.6 421.41,-795.6 421.41,-774.6 370.41,-774.6"/>
<text text-anchor="start" x="373.41" y="-781.4" font-family="Times New Roman,serif" font-size="14.00">24500.0</text>
<polygon fill="none" stroke="black" points="292.41,-751.6 292.41,-772.6 316.41,-772.6 316.41,-751.6 292.41,-751.6"/>
<text text-anchor="start" x="295.41" y="-758.4" font-family="Times New Roman,serif" font-size="14.00">0.0</text>
<polygon fill="none" stroke="black" points="318.41,-751.6 318.41,-772.6 342.41,-772.6 342.41,-751.6 318.41,-751.6"/>
<text text-anchor="start" x="321.41" y="-758.4" font-family="Times New Roman,serif" font-size="14.00">0.0</text>
<polygon fill="none" stroke="black" points="344.41,-751.6 344.41,-772.6 368.41,-772.6 368.41,-751.6 344.41,-751.6"/>
<text text-anchor="start" x="347.41" y="-758.4" font-family="Times New Roman,serif" font-size="14.00">0.0</text>
<polygon fill="none" stroke="black" points="370.41,-751.6 370.41,-772.6 421.41,-772.6 421.41,-751.6 370.41,-751.6"/>
<text text-anchor="start" x="386.91" y="-758.4" font-family="Times New Roman,serif" font-size="14.00">1.0</text>
<polygon fill="none" stroke="black" points="288.91,-748.6 288.91,-844.6 423.91,-844.6 423.91,-748.6 288.91,-748.6"/>
</g>
<!-- 18&#45;&gt;16 -->
<g id="edge6" class="edge">
<title>18&#45;&gt;16</title>
<path fill="none" stroke="black" d="M356.41,-722.78C356.41,-686.03 356.41,-643.64 356.41,-616.61"/>
<polygon fill="black" stroke="black" points="359.91,-616.37 356.41,-606.37 352.91,-616.37 359.91,-616.37"/>
</g>
<!-- 20 -->
<g id="node10" class="node">
<title>20</title>
<ellipse fill="none" stroke="black" cx="583.41" cy="-379.53" rx="68.49" ry="18"/>
<text text-anchor="middle" x="583.41" y="-375.83" font-family="Times New Roman,serif" font-size="14.00">Geode &quot;YAxis&quot;</text>
</g>
<!-- 22 -->
<g id="node11" class="node">
<title>22</title>
<ellipse fill="none" stroke="black" cx="583.41" cy="-588.06" rx="170.33" ry="98.99"/>
<polygon fill="none" stroke="black" points="474.41,-618.06 474.41,-651.06 529.41,-651.06 529.41,-618.06 474.41,-618.06"/>
<text text-anchor="start" x="477.91" y="-630.86" font-family="Times New Roman,serif" font-size="14.00">Ambient</text>
<polygon fill="none" stroke="black" points="531.41,-618.06 531.41,-651.06 693.41,-651.06 693.41,-618.06 531.41,-618.06"/>
<polygon fill="#ff0000" stroke="transparent" points="537.41,-624.06 537.41,-645.06 583.41,-645.06 583.41,-624.06 537.41,-624.06"/>
<polygon fill="none" stroke="black" points="537.41,-624.06 537.41,-645.06 583.41,-645.06 583.41,-624.06 537.41,-624.06"/>
<text text-anchor="start" x="540.41" y="-630.86" font-family="Times New Roman,serif" font-size="14.00">RGBA</text>
<polygon fill="none" stroke="black" points="585.41,-624.06 585.41,-645.06 609.41,-645.06 609.41,-624.06 585.41,-624.06"/>
<text text-anchor="start" x="588.41" y="-630.86" font-family="Times New Roman,serif" font-size="14.00">1.0</text>
<polygon fill="none" stroke="black" points="611.41,-624.06 611.41,-645.06 635.41,-645.06 635.41,-624.06 611.41,-624.06"/>
<text text-anchor="start" x="614.41" y="-630.86" font-family="Times New Roman,serif" font-size="14.00">0.0</text>
<polygon fill="none" stroke="black" points="637.41,-624.06 637.41,-645.06 661.41,-645.06 661.41,-624.06 637.41,-624.06"/>
<text text-anchor="start" x="640.41" y="-630.86" font-family="Times New Roman,serif" font-size="14.00">0.0</text>
<polygon fill="none" stroke="black" points="663.41,-624.06 663.41,-645.06 687.41,-645.06 687.41,-624.06 663.41,-624.06"/>
<text text-anchor="start" x="666.41" y="-630.86" font-family="Times New Roman,serif" font-size="14.00">1.0</text>
<polygon fill="none" stroke="black" points="534.41,-621.06 534.41,-648.06 690.41,-648.06 690.41,-621.06 534.41,-621.06"/>
<polygon fill="none" stroke="black" points="474.41,-583.06 474.41,-616.06 529.41,-616.06 529.41,-583.06 474.41,-583.06"/>
<text text-anchor="start" x="481.41" y="-595.86" font-family="Times New Roman,serif" font-size="14.00">Diffuse</text>
<polygon fill="none" stroke="black" points="531.41,-583.06 531.41,-616.06 693.41,-616.06 693.41,-583.06 531.41,-583.06"/>
<polygon fill="#ff0000" stroke="transparent" points="537.41,-589.06 537.41,-610.06 583.41,-610.06 583.41,-589.06 537.41,-589.06"/>
<polygon fill="none" stroke="black" points="537.41,-589.06 537.41,-610.06 583.41,-610.06 583.41,-589.06 537.41,-589.06"/>
<text text-anchor="start" x="540.41" y="-595.86" font-family="Times New Roman,serif" font-size="14.00">RGBA</text>
<polygon fill="none" stroke="black" points="585.41,-589.06 585.41,-610.06 609.41,-610.06 609.41,-589.06 585.41,-589.06"/>
<text text-anchor="start" x="588.41" y="-595.86" font-family="Times New Roman,serif" font-size="14.00">1.0</text>
<polygon fill="none" stroke="black" points="611.41,-589.06 611.41,-610.06 635.41,-610.06 635.41,-589.06 611.41,-589.06"/>
<text text-anchor="start" x="614.41" y="-595.86" font-family="Times New Roman,serif" font-size="14.00">0.0</text>
<polygon fill="none" stroke="black" points="637.41,-589.06 637.41,-610.06 661.41,-610.06 661.41,-589.06 637.41,-589.06"/>
<text text-anchor="start" x="640.41" y="-595.86" font-family="Times New Roman,serif" font-size="14.00">0.0</text>
<polygon fill="none" stroke="black" points="663.41,-589.06 663.41,-610.06 687.41,-610.06 687.41,-589.06 663.41,-589.06"/>
<text text-anchor="start" x="666.41" y="-595.86" font-family="Times New Roman,serif" font-size="14.00">1.0</text>
<polygon fill="none" stroke="black" points="534.41,-586.06 534.41,-613.06 690.41,-613.06 690.41,-586.06 534.41,-586.06"/>
<polygon fill="none" stroke="black" points="474.41,-548.06 474.41,-581.06 529.41,-581.06 529.41,-548.06 474.41,-548.06"/>
<text text-anchor="start" x="477.41" y="-560.86" font-family="Times New Roman,serif" font-size="14.00">Specular</text>
<polygon fill="none" stroke="black" points="531.41,-548.06 531.41,-581.06 693.41,-581.06 693.41,-548.06 531.41,-548.06"/>
<polygon fill="#666666" stroke="transparent" points="537.41,-554.06 537.41,-575.06 583.41,-575.06 583.41,-554.06 537.41,-554.06"/>
<polygon fill="none" stroke="black" points="537.41,-554.06 537.41,-575.06 583.41,-575.06 583.41,-554.06 537.41,-554.06"/>
<text text-anchor="start" x="540.41" y="-560.86" font-family="Times New Roman,serif" font-size="14.00">RGBA</text>
<polygon fill="none" stroke="black" points="585.41,-554.06 585.41,-575.06 609.41,-575.06 609.41,-554.06 585.41,-554.06"/>
<text text-anchor="start" x="588.41" y="-560.86" font-family="Times New Roman,serif" font-size="14.00">0.4</text>
<polygon fill="none" stroke="black" points="611.41,-554.06 611.41,-575.06 635.41,-575.06 635.41,-554.06 611.41,-554.06"/>
<text text-anchor="start" x="614.41" y="-560.86" font-family="Times New Roman,serif" font-size="14.00">0.4</text>
<polygon fill="none" stroke="black" points="637.41,-554.06 637.41,-575.06 661.41,-575.06 661.41,-554.06 637.41,-554.06"/>
<text text-anchor="start" x="640.41" y="-560.86" font-family="Times New Roman,serif" font-size="14.00">0.4</text>
<polygon fill="none" stroke="black" points="663.41,-554.06 663.41,-575.06 687.41,-575.06 687.41,-554.06 663.41,-554.06"/>
<text text-anchor="start" x="666.41" y="-560.86" font-family="Times New Roman,serif" font-size="14.00">1.0</text>
<polygon fill="none" stroke="black" points="534.41,-551.06 534.41,-578.06 690.41,-578.06 690.41,-551.06 534.41,-551.06"/>
<polygon fill="none" stroke="black" points="474.41,-525.06 474.41,-546.06 529.41,-546.06 529.41,-525.06 474.41,-525.06"/>
<text text-anchor="start" x="486.41" y="-531.86" font-family="Times New Roman,serif" font-size="14.00">Shine</text>
<polygon fill="none" stroke="black" points="531.41,-525.06 531.41,-546.06 693.41,-546.06 693.41,-525.06 531.41,-525.06"/>
<text text-anchor="start" x="603.41" y="-531.86" font-family="Times New Roman,serif" font-size="14.00">5.0</text>
<polygon fill="none" stroke="black" points="470.91,-522.06 470.91,-654.06 695.91,-654.06 695.91,-522.06 470.91,-522.06"/>
</g>
<!-- 22&#45;&gt;20 -->
<g id="edge7" class="edge">
<title>22&#45;&gt;20</title>
<path fill="none" stroke="black" d="M583.41,-488.94C583.41,-459.16 583.41,-428.81 583.41,-407.82"/>
<polygon fill="black" stroke="black" points="586.91,-407.76 583.41,-397.76 579.91,-407.76 586.91,-407.76"/>
</g>
<!-- 24 -->
<g id="node12" class="node">
<title>24</title>
<ellipse fill="none" stroke="black" cx="583.41" cy="-796.6" rx="101.65" ry="73.58"/>
<polygon fill="none" stroke="black" points="522.41,-820.6 522.41,-841.6 546.41,-841.6 546.41,-820.6 522.41,-820.6"/>
<text text-anchor="start" x="525.41" y="-827.4" font-family="Times New Roman,serif" font-size="14.00">1.0</text>
<polygon fill="none" stroke="black" points="548.41,-820.6 548.41,-841.6 572.41,-841.6 572.41,-820.6 548.41,-820.6"/>
<text text-anchor="start" x="551.41" y="-827.4" font-family="Times New Roman,serif" font-size="14.00">0.0</text>
<polygon fill="none" stroke="black" points="574.41,-820.6 574.41,-841.6 598.41,-841.6 598.41,-820.6 574.41,-820.6"/>
<text text-anchor="start" x="577.41" y="-827.4" font-family="Times New Roman,serif" font-size="14.00">0.0</text>
<polygon fill="none" stroke="black" points="600.41,-820.6 600.41,-841.6 644.41,-841.6 644.41,-820.6 600.41,-820.6"/>
<text text-anchor="start" x="613.41" y="-827.4" font-family="Times New Roman,serif" font-size="14.00">0.0</text>
<polygon fill="none" stroke="black" points="522.41,-797.6 522.41,-818.6 546.41,-818.6 546.41,-797.6 522.41,-797.6"/>
<text text-anchor="start" x="525.41" y="-804.4" font-family="Times New Roman,serif" font-size="14.00">0.0</text>
<polygon fill="none" stroke="black" points="548.41,-797.6 548.41,-818.6 572.41,-818.6 572.41,-797.6 548.41,-797.6"/>
<text text-anchor="start" x="551.41" y="-804.4" font-family="Times New Roman,serif" font-size="14.00">1.0</text>
<polygon fill="none" stroke="black" points="574.41,-797.6 574.41,-818.6 598.41,-818.6 598.41,-797.6 574.41,-797.6"/>
<text text-anchor="start" x="577.41" y="-804.4" font-family="Times New Roman,serif" font-size="14.00">0.0</text>
<polygon fill="none" stroke="black" points="600.41,-797.6 600.41,-818.6 644.41,-818.6 644.41,-797.6 600.41,-797.6"/>
<text text-anchor="start" x="613.41" y="-804.4" font-family="Times New Roman,serif" font-size="14.00">0.0</text>
<polygon fill="none" stroke="black" points="522.41,-774.6 522.41,-795.6 546.41,-795.6 546.41,-774.6 522.41,-774.6"/>
<text text-anchor="start" x="525.41" y="-781.4" font-family="Times New Roman,serif" font-size="14.00">0.0</text>
<polygon fill="none" stroke="black" points="548.41,-774.6 548.41,-795.6 572.41,-795.6 572.41,-774.6 548.41,-774.6"/>
<text text-anchor="start" x="551.41" y="-781.4" font-family="Times New Roman,serif" font-size="14.00">0.0</text>
<polygon fill="none" stroke="black" points="574.41,-774.6 574.41,-795.6 598.41,-795.6 598.41,-774.6 574.41,-774.6"/>
<text text-anchor="start" x="577.41" y="-781.4" font-family="Times New Roman,serif" font-size="14.00">1.0</text>
<polygon fill="none" stroke="black" points="600.41,-774.6 600.41,-795.6 644.41,-795.6 644.41,-774.6 600.41,-774.6"/>
<text text-anchor="start" x="603.41" y="-781.4" font-family="Times New Roman,serif" font-size="14.00">5000.0</text>
<polygon fill="none" stroke="black" points="522.41,-751.6 522.41,-772.6 546.41,-772.6 546.41,-751.6 522.41,-751.6"/>
<text text-anchor="start" x="525.41" y="-758.4" font-family="Times New Roman,serif" font-size="14.00">0.0</text>
<polygon fill="none" stroke="black" points="548.41,-751.6 548.41,-772.6 572.41,-772.6 572.41,-751.6 548.41,-751.6"/>
<text text-anchor="start" x="551.41" y="-758.4" font-family="Times New Roman,serif" font-size="14.00">0.0</text>
<polygon fill="none" stroke="black" points="574.41,-751.6 574.41,-772.6 598.41,-772.6 598.41,-751.6 574.41,-751.6"/>
<text text-anchor="start" x="577.41" y="-758.4" font-family="Times New Roman,serif" font-size="14.00">0.0</text>
<polygon fill="none" stroke="black" points="600.41,-751.6 600.41,-772.6 644.41,-772.6 644.41,-751.6 600.41,-751.6"/>
<text text-anchor="start" x="613.41" y="-758.4" font-family="Times New Roman,serif" font-size="14.00">1.0</text>
<polygon fill="none" stroke="black" points="519.41,-748.6 519.41,-844.6 647.41,-844.6 647.41,-748.6 519.41,-748.6"/>
</g>
<!-- 24&#45;&gt;22 -->
<g id="edge8" class="edge">
<title>24&#45;&gt;22</title>
<path fill="none" stroke="black" d="M583.41,-722.78C583.41,-714.52 583.41,-705.97 583.41,-697.37"/>
<polygon fill="black" stroke="black" points="586.91,-697.27 583.41,-687.27 579.91,-697.27 586.91,-697.27"/>
</g>
<!-- 26 -->
<g id="node13" class="node">
<title>26</title>
<ellipse fill="none" stroke="black" cx="469.41" cy="-924.14" rx="34.39" ry="18"/>
<text text-anchor="middle" x="469.41" y="-920.44" font-family="Times New Roman,serif" font-size="14.00">Group</text>
</g>
<!-- 26&#45;&gt;18 -->
<g id="edge9" class="edge">
<title>26&#45;&gt;18</title>
<path fill="none" stroke="black" d="M455.33,-907.49C445.87,-896.98 432.68,-882.33 419,-867.13"/>
<polygon fill="black" stroke="black" points="421.56,-864.74 412.27,-859.65 416.36,-869.42 421.56,-864.74"/>
</g>
<!-- 26&#45;&gt;24 -->
<g id="edge10" class="edge">
<title>26&#45;&gt;24</title>
<path fill="none" stroke="black" d="M483.62,-907.49C493.37,-896.76 507.05,-881.69 521.16,-866.15"/>
<polygon fill="black" stroke="black" points="523.97,-868.26 528.1,-858.5 518.79,-863.55 523.97,-868.26"/>
</g>
<!-- 28 -->
<g id="node14" class="node">
<title>28</title>
<ellipse fill="none" stroke="black" cx="393.41" cy="-1077.13" rx="34.39" ry="18"/>
<text text-anchor="middle" x="393.41" y="-1073.43" font-family="Times New Roman,serif" font-size="14.00">Group</text>
</g>
<!-- 28&#45;&gt;6 -->
<g id="edge11" class="edge">
<title>28&#45;&gt;6</title>
<path fill="none" stroke="black" d="M389.35,-1059.1C383.17,-1033.16 371.33,-983.49 363.93,-952.46"/>
<polygon fill="black" stroke="black" points="367.24,-951.25 361.51,-942.33 360.43,-952.87 367.24,-951.25"/>
</g>
<!-- 28&#45;&gt;26 -->
<g id="edge12" class="edge">
<title>28&#45;&gt;26</title>
<path fill="none" stroke="black" d="M401.84,-1059.4C415.02,-1033.21 440.63,-982.33 456.26,-951.28"/>
<polygon fill="black" stroke="black" points="459.58,-952.45 460.95,-941.95 453.33,-949.31 459.58,-952.45"/>
</g>
<!-- 30 -->
<g id="node15" class="node">
<title>30</title>
<ellipse fill="none" stroke="black" cx="281.41" cy="-1230.13" rx="34.39" ry="18"/>
<text text-anchor="middle" x="281.41" y="-1226.43" font-family="Times New Roman,serif" font-size="14.00">Group</text>
</g>
<!-- 30&#45;&gt;4 -->
<g id="edge13" class="edge">
<title>30&#45;&gt;4</title>
<path fill="none" stroke="black" d="M269.53,-1212.97C262.61,-1203.55 253.25,-1190.82 243.03,-1176.91"/>
<polygon fill="black" stroke="black" points="245.67,-1174.59 236.92,-1168.61 240.03,-1178.74 245.67,-1174.59"/>
</g>
<!-- 30&#45;&gt;28 -->
<g id="edge14" class="edge">
<title>30&#45;&gt;28</title>
<path fill="none" stroke="black" d="M303.31,-1216.08C317.9,-1206.51 336.66,-1192.38 349.41,-1176.13 366.33,-1154.57 378.33,-1125.47 385.47,-1104.59"/>
<polygon fill="black" stroke="black" points="388.8,-1105.66 388.59,-1095.07 382.15,-1103.48 388.8,-1105.66"/>
</g>
</g>
</svg>
