<?xml version="1.0" encoding="UTF-8" standalone="no"?>
<!DOCTYPE svg PUBLIC "-//W3C//DTD SVG 1.1//EN"
 "http://www.w3.org/Graphics/SVG/1.1/DTD/svg11.dtd">
<!-- Generated by graphviz version 2.47.0 (20210316.0004)
 -->
<!-- Pages: 1 -->
<svg width="501pt" height="698pt"
 viewBox="0.00 0.00 501.07 698.16" xmlns="http://www.w3.org/2000/svg" xmlns:xlink="http://www.w3.org/1999/xlink">
<g id="graph0" class="graph" transform="scale(1 1) rotate(0) translate(4 694.16)">
<polygon fill="white" stroke="transparent" points="-4,4 -4,-694.16 497.07,-694.16 497.07,4 -4,4"/>
<!-- 2 -->
<g id="node1" class="node">
<title>2</title>
<ellipse fill="none" stroke="black" cx="95.24" cy="-600.16" rx="73.39" ry="18"/>
<text text-anchor="middle" x="95.24" y="-596.46" font-family="Times New Roman,serif" font-size="14.00">Geode &quot;Ground&quot;</text>
</g>
<!-- 4 -->
<g id="node2" class="node">
<title>4</title>
<ellipse fill="none" stroke="black" cx="165.24" cy="-528.16" rx="59.59" ry="18"/>
<text text-anchor="middle" x="165.24" y="-524.46" font-family="Times New Roman,serif" font-size="14.00">Geode &quot;Bed&quot;</text>
</g>
<!-- 6 -->
<g id="node3" class="node">
<title>6</title>
<ellipse fill="none" stroke="black" cx="68.24" cy="-145.54" rx="68.49" ry="18"/>
<text text-anchor="middle" x="68.24" y="-141.84" font-family="Times New Roman,serif" font-size="14.00">Geode &quot;XAxis&quot;</text>
</g>
<!-- 8 -->
<g id="node4" class="node">
<title>8</title>
<ellipse fill="none" stroke="black" cx="260.24" cy="-18" rx="67.69" ry="18"/>
<text text-anchor="middle" x="260.24" y="-14.3" font-family="Times New Roman,serif" font-size="14.00">Geode &quot;ZAxis&quot;</text>
</g>
<!-- 10 -->
<g id="node5" class="node">
<title>10</title>
<ellipse fill="none" stroke="black" cx="260.24" cy="-145.54" rx="105.22" ry="73.58"/>
<polygon fill="none" stroke="black" points="197.24,-169.54 197.24,-190.54 221.24,-190.54 221.24,-169.54 197.24,-169.54"/>
<text text-anchor="start" x="200.24" y="-176.34" font-family="Times New Roman,serif" font-size="14.00">1.0</text>
<polygon fill="none" stroke="black" points="223.24,-169.54 223.24,-190.54 247.24,-190.54 247.24,-169.54 223.24,-169.54"/>
<text text-anchor="start" x="226.24" y="-176.34" font-family="Times New Roman,serif" font-size="14.00">0.0</text>
<polygon fill="none" stroke="black" points="249.24,-169.54 249.24,-190.54 273.24,-190.54 273.24,-169.54 249.24,-169.54"/>
<text text-anchor="start" x="252.24" y="-176.34" font-family="Times New Roman,serif" font-size="14.00">0.0</text>
<polygon fill="none" stroke="black" points="275.24,-169.54 275.24,-190.54 324.24,-190.54 324.24,-169.54 275.24,-169.54"/>
<text text-anchor="start" x="290.74" y="-176.34" font-family="Times New Roman,serif" font-size="14.00">0.0</text>
<polygon fill="none" stroke="black" points="197.24,-146.54 197.24,-167.54 221.24,-167.54 221.24,-146.54 197.24,-146.54"/>
<text text-anchor="start" x="200.24" y="-153.34" font-family="Times New Roman,serif" font-size="14.00">0.0</text>
<polygon fill="none" stroke="black" points="223.24,-146.54 223.24,-167.54 247.24,-167.54 247.24,-146.54 223.24,-146.54"/>
<text text-anchor="start" x="226.24" y="-153.34" font-family="Times New Roman,serif" font-size="14.00">1.0</text>
<polygon fill="none" stroke="black" points="249.24,-146.54 249.24,-167.54 273.24,-167.54 273.24,-146.54 249.24,-146.54"/>
<text text-anchor="start" x="252.24" y="-153.34" font-family="Times New Roman,serif" font-size="14.00">0.0</text>
<polygon fill="none" stroke="black" points="275.24,-146.54 275.24,-167.54 324.24,-167.54 324.24,-146.54 275.24,-146.54"/>
<text text-anchor="start" x="278.24" y="-153.34" font-family="Times New Roman,serif" font-size="14.00">&#45;8000.0</text>
<polygon fill="none" stroke="black" points="197.24,-123.54 197.24,-144.54 221.24,-144.54 221.24,-123.54 197.24,-123.54"/>
<text text-anchor="start" x="200.24" y="-130.34" font-family="Times New Roman,serif" font-size="14.00">0.0</text>
<polygon fill="none" stroke="black" points="223.24,-123.54 223.24,-144.54 247.24,-144.54 247.24,-123.54 223.24,-123.54"/>
<text text-anchor="start" x="226.24" y="-130.34" font-family="Times New Roman,serif" font-size="14.00">0.0</text>
<polygon fill="none" stroke="black" points="249.24,-123.54 249.24,-144.54 273.24,-144.54 273.24,-123.54 249.24,-123.54"/>
<text text-anchor="start" x="252.24" y="-130.34" font-family="Times New Roman,serif" font-size="14.00">1.0</text>
<polygon fill="none" stroke="black" points="275.24,-123.54 275.24,-144.54 324.24,-144.54 324.24,-123.54 275.24,-123.54"/>
<text text-anchor="start" x="290.74" y="-130.34" font-family="Times New Roman,serif" font-size="14.00">0.0</text>
<polygon fill="none" stroke="black" points="197.24,-100.54 197.24,-121.54 221.24,-121.54 221.24,-100.54 197.24,-100.54"/>
<text text-anchor="start" x="200.24" y="-107.34" font-family="Times New Roman,serif" font-size="14.00">0.0</text>
<polygon fill="none" stroke="black" points="223.24,-100.54 223.24,-121.54 247.24,-121.54 247.24,-100.54 223.24,-100.54"/>
<text text-anchor="start" x="226.24" y="-107.34" font-family="Times New Roman,serif" font-size="14.00">0.0</text>
<polygon fill="none" stroke="black" points="249.24,-100.54 249.24,-121.54 273.24,-121.54 273.24,-100.54 249.24,-100.54"/>
<text text-anchor="start" x="252.24" y="-107.34" font-family="Times New Roman,serif" font-size="14.00">0.0</text>
<polygon fill="none" stroke="black" points="275.24,-100.54 275.24,-121.54 324.24,-121.54 324.24,-100.54 275.24,-100.54"/>
<text text-anchor="start" x="290.74" y="-107.34" font-family="Times New Roman,serif" font-size="14.00">1.0</text>
<polygon fill="none" stroke="black" points="193.74,-97.54 193.74,-193.54 326.74,-193.54 326.74,-97.54 193.74,-97.54"/>
</g>
<!-- 10&#45;&gt;8 -->
<g id="edge1" class="edge">
<title>10&#45;&gt;8</title>
<path fill="none" stroke="black" d="M260.24,-71.88C260.24,-62.88 260.24,-54.17 260.24,-46.5"/>
<polygon fill="black" stroke="black" points="263.74,-46.42 260.24,-36.42 256.74,-46.42 263.74,-46.42"/>
</g>
<!-- 12 -->
<g id="node6" class="node">
<title>12</title>
<ellipse fill="none" stroke="black" cx="164.24" cy="-273.08" rx="34.39" ry="18"/>
<text text-anchor="middle" x="164.24" y="-269.38" font-family="Times New Roman,serif" font-size="14.00">Group</text>
</g>
<!-- 12&#45;&gt;6 -->
<g id="edge2" class="edge">
<title>12&#45;&gt;6</title>
<path fill="none" stroke="black" d="M152.09,-256.18C135.77,-234.84 106.61,-196.71 87.34,-171.52"/>
<polygon fill="black" stroke="black" points="90.08,-169.33 81.22,-163.51 84.52,-173.58 90.08,-169.33"/>
</g>
<!-- 12&#45;&gt;10 -->
<g id="edge3" class="edge">
<title>12&#45;&gt;10</title>
<path fill="none" stroke="black" d="M176.4,-256.18C183.91,-246.36 194.13,-232.99 204.86,-218.96"/>
<polygon fill="black" stroke="black" points="207.93,-220.71 211.22,-210.64 202.37,-216.46 207.93,-220.71"/>
</g>
<!-- 14 -->
<g id="node7" class="node">
<title>14</title>
<ellipse fill="none" stroke="black" cx="164.24" cy="-400.62" rx="106.55" ry="73.58"/>
<polygon fill="none" stroke="black" points="100.24,-424.62 100.24,-445.62 124.24,-445.62 124.24,-424.62 100.24,-424.62"/>
<text text-anchor="start" x="103.24" y="-431.42" font-family="Times New Roman,serif" font-size="14.00">1.0</text>
<polygon fill="none" stroke="black" points="126.24,-424.62 126.24,-445.62 150.24,-445.62 150.24,-424.62 126.24,-424.62"/>
<text text-anchor="start" x="129.24" y="-431.42" font-family="Times New Roman,serif" font-size="14.00">0.0</text>
<polygon fill="none" stroke="black" points="152.24,-424.62 152.24,-445.62 176.24,-445.62 176.24,-424.62 152.24,-424.62"/>
<text text-anchor="start" x="155.24" y="-431.42" font-family="Times New Roman,serif" font-size="14.00">0.0</text>
<polygon fill="none" stroke="black" points="178.24,-424.62 178.24,-445.62 229.24,-445.62 229.24,-424.62 178.24,-424.62"/>
<text text-anchor="start" x="194.74" y="-431.42" font-family="Times New Roman,serif" font-size="14.00">0.0</text>
<polygon fill="none" stroke="black" points="100.24,-401.62 100.24,-422.62 124.24,-422.62 124.24,-401.62 100.24,-401.62"/>
<text text-anchor="start" x="103.24" y="-408.42" font-family="Times New Roman,serif" font-size="14.00">0.0</text>
<polygon fill="none" stroke="black" points="126.24,-401.62 126.24,-422.62 150.24,-422.62 150.24,-401.62 126.24,-401.62"/>
<text text-anchor="start" x="129.24" y="-408.42" font-family="Times New Roman,serif" font-size="14.00">1.0</text>
<polygon fill="none" stroke="black" points="152.24,-401.62 152.24,-422.62 176.24,-422.62 176.24,-401.62 152.24,-401.62"/>
<text text-anchor="start" x="155.24" y="-408.42" font-family="Times New Roman,serif" font-size="14.00">0.0</text>
<polygon fill="none" stroke="black" points="178.24,-401.62 178.24,-422.62 229.24,-422.62 229.24,-401.62 178.24,-401.62"/>
<text text-anchor="start" x="184.74" y="-408.42" font-family="Times New Roman,serif" font-size="14.00">4000.0</text>
<polygon fill="none" stroke="black" points="100.24,-378.62 100.24,-399.62 124.24,-399.62 124.24,-378.62 100.24,-378.62"/>
<text text-anchor="start" x="103.24" y="-385.42" font-family="Times New Roman,serif" font-size="14.00">0.0</text>
<polygon fill="none" stroke="black" points="126.24,-378.62 126.24,-399.62 150.24,-399.62 150.24,-378.62 126.24,-378.62"/>
<text text-anchor="start" x="129.24" y="-385.42" font-family="Times New Roman,serif" font-size="14.00">0.0</text>
<polygon fill="none" stroke="black" points="152.24,-378.62 152.24,-399.62 176.24,-399.62 176.24,-378.62 152.24,-378.62"/>
<text text-anchor="start" x="155.24" y="-385.42" font-family="Times New Roman,serif" font-size="14.00">1.0</text>
<polygon fill="none" stroke="black" points="178.24,-378.62 178.24,-399.62 229.24,-399.62 229.24,-378.62 178.24,-378.62"/>
<text text-anchor="start" x="181.24" y="-385.42" font-family="Times New Roman,serif" font-size="14.00">24500.0</text>
<polygon fill="none" stroke="black" points="100.24,-355.62 100.24,-376.62 124.24,-376.62 124.24,-355.62 100.24,-355.62"/>
<text text-anchor="start" x="103.24" y="-362.42" font-family="Times New Roman,serif" font-size="14.00">0.0</text>
<polygon fill="none" stroke="black" points="126.24,-355.62 126.24,-376.62 150.24,-376.62 150.24,-355.62 126.24,-355.62"/>
<text text-anchor="start" x="129.24" y="-362.42" font-family="Times New Roman,serif" font-size="14.00">0.0</text>
<polygon fill="none" stroke="black" points="152.24,-355.62 152.24,-376.62 176.24,-376.62 176.24,-355.62 152.24,-355.62"/>
<text text-anchor="start" x="155.24" y="-362.42" font-family="Times New Roman,serif" font-size="14.00">0.0</text>
<polygon fill="none" stroke="black" points="178.24,-355.62 178.24,-376.62 229.24,-376.62 229.24,-355.62 178.24,-355.62"/>
<text text-anchor="start" x="194.74" y="-362.42" font-family="Times New Roman,serif" font-size="14.00">1.0</text>
<polygon fill="none" stroke="black" points="96.74,-352.62 96.74,-448.62 231.74,-448.62 231.74,-352.62 96.74,-352.62"/>
</g>
<!-- 14&#45;&gt;12 -->
<g id="edge4" class="edge">
<title>14&#45;&gt;12</title>
<path fill="none" stroke="black" d="M164.24,-326.95C164.24,-317.96 164.24,-309.25 164.24,-301.57"/>
<polygon fill="black" stroke="black" points="167.74,-301.5 164.24,-291.5 160.74,-301.5 167.74,-301.5"/>
</g>
<!-- 16 -->
<g id="node8" class="node">
<title>16</title>
<ellipse fill="none" stroke="black" cx="391.24" cy="-273.08" rx="68.49" ry="18"/>
<text text-anchor="middle" x="391.24" y="-269.38" font-family="Times New Roman,serif" font-size="14.00">Geode &quot;YAxis&quot;</text>
</g>
<!-- 18 -->
<g id="node9" class="node">
<title>18</title>
<ellipse fill="none" stroke="black" cx="391.24" cy="-400.62" rx="101.65" ry="73.58"/>
<polygon fill="none" stroke="black" points="330.24,-424.62 330.24,-445.62 354.24,-445.62 354.24,-424.62 330.24,-424.62"/>
<text text-anchor="start" x="333.24" y="-431.42" font-family="Times New Roman,serif" font-size="14.00">1.0</text>
<polygon fill="none" stroke="black" points="356.24,-424.62 356.24,-445.62 380.24,-445.62 380.24,-424.62 356.24,-424.62"/>
<text text-anchor="start" x="359.24" y="-431.42" font-family="Times New Roman,serif" font-size="14.00">0.0</text>
<polygon fill="none" stroke="black" points="382.24,-424.62 382.24,-445.62 406.24,-445.62 406.24,-424.62 382.24,-424.62"/>
<text text-anchor="start" x="385.24" y="-431.42" font-family="Times New Roman,serif" font-size="14.00">0.0</text>
<polygon fill="none" stroke="black" points="408.24,-424.62 408.24,-445.62 452.24,-445.62 452.24,-424.62 408.24,-424.62"/>
<text text-anchor="start" x="421.24" y="-431.42" font-family="Times New Roman,serif" font-size="14.00">0.0</text>
<polygon fill="none" stroke="black" points="330.24,-401.62 330.24,-422.62 354.24,-422.62 354.24,-401.62 330.24,-401.62"/>
<text text-anchor="start" x="333.24" y="-408.42" font-family="Times New Roman,serif" font-size="14.00">0.0</text>
<polygon fill="none" stroke="black" points="356.24,-401.62 356.24,-422.62 380.24,-422.62 380.24,-401.62 356.24,-401.62"/>
<text text-anchor="start" x="359.24" y="-408.42" font-family="Times New Roman,serif" font-size="14.00">1.0</text>
<polygon fill="none" stroke="black" points="382.24,-401.62 382.24,-422.62 406.24,-422.62 406.24,-401.62 382.24,-401.62"/>
<text text-anchor="start" x="385.24" y="-408.42" font-family="Times New Roman,serif" font-size="14.00">0.0</text>
<polygon fill="none" stroke="black" points="408.24,-401.62 408.24,-422.62 452.24,-422.62 452.24,-401.62 408.24,-401.62"/>
<text text-anchor="start" x="421.24" y="-408.42" font-family="Times New Roman,serif" font-size="14.00">0.0</text>
<polygon fill="none" stroke="black" points="330.24,-378.62 330.24,-399.62 354.24,-399.62 354.24,-378.62 330.24,-378.62"/>
<text text-anchor="start" x="333.24" y="-385.42" font-family="Times New Roman,serif" font-size="14.00">0.0</text>
<polygon fill="none" stroke="black" points="356.24,-378.62 356.24,-399.62 380.24,-399.62 380.24,-378.62 356.24,-378.62"/>
<text text-anchor="start" x="359.24" y="-385.42" font-family="Times New Roman,serif" font-size="14.00">0.0</text>
<polygon fill="none" stroke="black" points="382.24,-378.62 382.24,-399.62 406.24,-399.62 406.24,-378.62 382.24,-378.62"/>
<text text-anchor="start" x="385.24" y="-385.42" font-family="Times New Roman,serif" font-size="14.00">1.0</text>
<polygon fill="none" stroke="black" points="408.24,-378.62 408.24,-399.62 452.24,-399.62 452.24,-378.62 408.24,-378.62"/>
<text text-anchor="start" x="411.24" y="-385.42" font-family="Times New Roman,serif" font-size="14.00">5000.0</text>
<polygon fill="none" stroke="black" points="330.24,-355.62 330.24,-376.62 354.24,-376.62 354.24,-355.62 330.24,-355.62"/>
<text text-anchor="start" x="333.24" y="-362.42" font-family="Times New Roman,serif" font-size="14.00">0.0</text>
<polygon fill="none" stroke="black" points="356.24,-355.62 356.24,-376.62 380.24,-376.62 380.24,-355.62 356.24,-355.62"/>
<text text-anchor="start" x="359.24" y="-362.42" font-family="Times New Roman,serif" font-size="14.00">0.0</text>
<polygon fill="none" stroke="black" points="382.24,-355.62 382.24,-376.62 406.24,-376.62 406.24,-355.62 382.24,-355.62"/>
<text text-anchor="start" x="385.24" y="-362.42" font-family="Times New Roman,serif" font-size="14.00">0.0</text>
<polygon fill="none" stroke="black" points="408.24,-355.62 408.24,-376.62 452.24,-376.62 452.24,-355.62 408.24,-355.62"/>
<text text-anchor="start" x="421.24" y="-362.42" font-family="Times New Roman,serif" font-size="14.00">1.0</text>
<polygon fill="none" stroke="black" points="327.24,-352.62 327.24,-448.62 455.24,-448.62 455.24,-352.62 327.24,-352.62"/>
</g>
<!-- 18&#45;&gt;16 -->
<g id="edge5" class="edge">
<title>18&#45;&gt;16</title>
<path fill="none" stroke="black" d="M391.24,-326.95C391.24,-317.96 391.24,-309.25 391.24,-301.57"/>
<polygon fill="black" stroke="black" points="394.74,-301.5 391.24,-291.5 387.74,-301.5 394.74,-301.5"/>
</g>
<!-- 20 -->
<g id="node10" class="node">
<title>20</title>
<ellipse fill="none" stroke="black" cx="277.24" cy="-528.16" rx="34.39" ry="18"/>
<text text-anchor="middle" x="277.24" y="-524.46" font-family="Times New Roman,serif" font-size="14.00">Group</text>
</g>
<!-- 20&#45;&gt;14 -->
<g id="edge6" class="edge">
<title>20&#45;&gt;14</title>
<path fill="none" stroke="black" d="M263.16,-511.51C253.7,-501 240.51,-486.35 226.84,-471.16"/>
<polygon fill="black" stroke="black" points="229.39,-468.76 220.1,-463.67 224.19,-473.44 229.39,-468.76"/>
</g>
<!-- 20&#45;&gt;18 -->
<g id="edge7" class="edge">
<title>20&#45;&gt;18</title>
<path fill="none" stroke="black" d="M291.45,-511.51C301.2,-500.78 314.88,-485.71 328.99,-470.17"/>
<polygon fill="black" stroke="black" points="331.8,-472.28 335.94,-462.52 326.62,-467.57 331.8,-472.28"/>
</g>
<!-- 22 -->
<g id="node11" class="node">
<title>22</title>
<ellipse fill="none" stroke="black" cx="221.24" cy="-600.16" rx="34.39" ry="18"/>
<text text-anchor="middle" x="221.24" y="-596.46" font-family="Times New Roman,serif" font-size="14.00">Group</text>
</g>
<!-- 22&#45;&gt;4 -->
<g id="edge8" class="edge">
<title>22&#45;&gt;4</title>
<path fill="none" stroke="black" d="M208.54,-583.27C201.58,-574.57 192.8,-563.6 184.97,-553.82"/>
<polygon fill="black" stroke="black" points="187.66,-551.58 178.68,-545.95 182.2,-555.95 187.66,-551.58"/>
</g>
<!-- 22&#45;&gt;20 -->
<g id="edge9" class="edge">
<title>22&#45;&gt;20</title>
<path fill="none" stroke="black" d="M233.95,-583.27C241.11,-574.32 250.2,-562.97 258.19,-552.97"/>
<polygon fill="black" stroke="black" points="261.07,-554.97 264.59,-544.98 255.61,-550.6 261.07,-554.97"/>
</g>
<!-- 24 -->
<g id="node12" class="node">
<title>24</title>
<ellipse fill="none" stroke="black" cx="158.24" cy="-672.16" rx="34.39" ry="18"/>
<text text-anchor="middle" x="158.24" y="-668.46" font-family="Times New Roman,serif" font-size="14.00">Group</text>
</g>
<!-- 24&#45;&gt;2 -->
<g id="edge10" class="edge">
<title>24&#45;&gt;2</title>
<path fill="none" stroke="black" d="M144.26,-655.62C136.37,-646.85 126.32,-635.69 117.38,-625.75"/>
<polygon fill="black" stroke="black" points="119.8,-623.21 110.51,-618.12 114.6,-627.89 119.8,-623.21"/>
</g>
<!-- 24&#45;&gt;22 -->
<g id="edge11" class="edge">
<title>24&#45;&gt;22</title>
<path fill="none" stroke="black" d="M172.23,-655.62C180.55,-646.38 191.26,-634.48 200.54,-624.16"/>
<polygon fill="black" stroke="black" points="203.21,-626.42 207.3,-616.65 198.01,-621.74 203.21,-626.42"/>
</g>
</g>
</svg>
