solid OpenSCAD_Model
  facet normal -0 0 1
    outer loop
      vertex -100000 100000 500
      vertex 100000 -100000 500
      vertex 100000 100000 500
    endloop
  endfacet
  facet normal 0 0 1
    outer loop
      vertex 100000 -100000 500
      vertex -100000 100000 500
      vertex -100000 -100000 500
    endloop
  endfacet
  facet normal 0 0 -1
    outer loop
      vertex -100000 -100000 -500
      vertex 100000 100000 -500
      vertex 100000 -100000 -500
    endloop
  endfacet
  facet normal -0 0 -1
    outer loop
      vertex 100000 100000 -500
      vertex -100000 -100000 -500
      vertex -100000 100000 -500
    endloop
  endfacet
  facet normal 0 -1 0
    outer loop
      vertex -100000 -100000 -500
      vertex 100000 -100000 500
      vertex -100000 -100000 500
    endloop
  endfacet
  facet normal 0 -1 -0
    outer loop
      vertex 100000 -100000 500
      vertex -100000 -100000 -500
      vertex 100000 -100000 -500
    endloop
  endfacet
  facet normal 1 -0 0
    outer loop
      vertex 100000 -100000 500
      vertex 100000 100000 -500
      vertex 100000 100000 500
    endloop
  endfacet
  facet normal 1 0 0
    outer loop
      vertex 100000 100000 -500
      vertex 100000 -100000 500
      vertex 100000 -100000 -500
    endloop
  endfacet
  facet normal 0 1 -0
    outer loop
      vertex 100000 100000 -500
      vertex -100000 100000 500
      vertex 100000 100000 500
    endloop
  endfacet
  facet normal 0 1 0
    outer loop
      vertex -100000 100000 500
      vertex 100000 100000 -500
      vertex -100000 100000 -500
    endloop
  endfacet
  facet normal -1 0 0
    outer loop
      vertex -100000 -100000 -500
      vertex -100000 100000 500
      vertex -100000 100000 -500
    endloop
  endfacet
  facet normal -1 -0 0
    outer loop
      vertex -100000 100000 500
      vertex -100000 -100000 -500
      vertex -100000 -100000 500
    endloop
  endfacet
endsolid OpenSCAD_Model
